<svg width="48" height="48" viewBox="0 0 48 48" fill="none" xmlns="http://www.w3.org/2000/svg">
<path fill-rule="evenodd" clip-rule="evenodd" d="M24 44C35.0457 44 44 35.0457 44 24C44 12.9543 35.0457 4 24 4C12.9543 4 4 12.9543 4 24C4 35.0457 12.9543 44 24 44ZM12 19.5C12 15.3585 15.3585 12 19.5 12H28.5C32.6415 12 36 15.3585 36 19.5V28.5C36 32.6415 32.6415 36 28.5 36H19.5C15.3585 36 12 32.6415 12 28.5V19.5ZM28.5 33.0833C31.395 33.0833 33.0833 31.395 33.0833 28.5V19.5C33.0833 16.605 31.395 14.9167 28.5 14.9167H19.5C16.605 14.9167 14.9167 16.605 14.9167 19.5V28.5C14.9167 31.395 16.605 33.0833 19.5 33.0833H28.5ZM18 24C18 20.6865 20.6865 18 24 18C27.3135 18 30 20.6865 30 24C30 27.3135 27.3135 30 24 30C20.6865 30 18 27.3135 18 24ZM20.25 24C20.25 26.067 21.933 27.75 24 27.75C26.067 27.75 27.75 26.067 27.75 24C27.75 21.9315 26.067 20.25 24 20.25C21.933 20.25 20.25 21.9315 20.25 24ZM30.4499 18.3495C30.8914 18.3495 31.2494 17.9915 31.2494 17.55C31.2494 17.1084 30.8914 16.7505 30.4499 16.7505C30.0083 16.7505 29.6504 17.1084 29.6504 17.55C29.6504 17.9915 30.0083 18.3495 30.4499 18.3495Z" fill="#999BA1"/>
</svg>
