<svg width="27" height="27" viewBox="0 0 27 27" fill="none" xmlns="http://www.w3.org/2000/svg">
<path fill-rule="evenodd" clip-rule="evenodd" d="M21.799 0.585786C21.0179 -0.195262 19.7516 -0.195262 18.9706 0.585786L13.314 6.24237L7.65739 0.585786C6.87634 -0.195262 5.61001 -0.195262 4.82896 0.585786L0.58632 4.82843C-0.194728 5.60948 -0.194728 6.87581 0.58632 7.65685L6.24291 13.3134L0.585786 18.9706C-0.195262 19.7516 -0.195262 21.0179 0.585786 21.799L4.82843 26.0416C5.60948 26.8227 6.87581 26.8227 7.65685 26.0416L13.314 20.3845L18.9711 26.0416C19.7521 26.8227 21.0185 26.8227 21.7995 26.0416L26.0422 21.799C26.8232 21.0179 26.8232 19.7516 26.0422 18.9706L20.385 13.3134L26.0416 7.65685C26.8227 6.87581 26.8227 5.60948 26.0416 4.82843L21.799 0.585786Z" fill="#E53247"/>
</svg>
